<svg id="svg" xmlns="http://www.w3.org/2000/svg" xmlns:xlink="http://www.w3.org/1999/xlink" width="400" height="400" viewBox="0, 0, 400,400"><g id="svgg"><path id="path0" d="M82.696 30.106 C 82.797 30.368,91.908 46.463,102.943 65.873 C 113.978 85.283,123.098 101.403,123.210 101.693 C 123.383 102.146,121.288 102.223,108.651 102.225 L 93.889 102.227 64.109 234.169 C 47.730 306.737,34.254 366.319,34.162 366.574 C 34.029 366.941,38.748 367.037,56.970 367.037 L 79.945 367.037 86.058 348.611 L 92.172 330.185 107.779 256.852 C 116.363 216.519,123.547 182.894,123.744 182.130 L 124.103 180.741 126.419 180.741 L 128.735 180.741 131.676 192.013 C 133.293 198.212,134.636 203.254,134.659 203.217 C 134.683 203.179,142.255 180.565,151.487 152.963 C 160.718 125.361,168.431 102.569,168.625 102.315 C 168.881 101.981,170.517 101.852,174.490 101.852 C 177.520 101.852,180.000 101.751,180.000 101.628 C 180.000 101.505,170.627 85.255,159.170 65.517 L 138.340 29.630 110.427 29.630 C 87.832 29.630,82.548 29.720,82.696 30.106 M262.708 30.093 C 262.544 30.347,253.310 46.556,242.189 66.111 L 221.969 101.667 226.953 101.852 L 231.937 102.037 238.127 120.185 C 241.531 130.167,248.878 151.733,254.454 168.111 C 260.030 184.489,264.674 197.656,264.774 197.371 C 264.874 197.085,265.898 193.185,267.051 188.704 L 269.146 180.556 271.517 180.452 L 273.889 180.348 287.341 242.241 L 300.794 304.135 311.377 335.216 L 321.960 366.296 344.171 366.296 C 365.141 366.296,366.373 366.260,366.217 365.648 C 366.126 365.292,352.326 305.794,335.550 233.430 L 305.050 101.860 290.868 101.764 L 276.686 101.667 296.908 66.111 C 308.030 46.556,317.210 30.347,317.308 30.093 C 317.570 29.413,263.146 29.413,262.708 30.093 M194.678 177.113 C 182.074 216.484,158.148 291.971,158.148 292.365 C 158.148 292.640,162.323 308.762,167.425 328.192 C 172.527 347.621,176.880 364.227,177.099 365.093 L 177.495 366.667 199.811 366.667 L 222.127 366.667 223.263 362.315 C 226.706 349.129,241.111 291.447,241.111 290.848 C 241.111 290.460,232.218 263.068,221.349 229.978 L 201.586 169.815 199.335 169.705 L 197.085 169.596 194.678 177.113 " stroke="none" fill="#000000" fill-rule="evenodd"></path></g></svg>